<?xml version="1.0" encoding="UTF-8"?>
<!DOCTYPE svg PUBLIC "-//W3C//DTD SVG 1.1//EN" "http://www.w3.org/Graphics/SVG/1.1/DTD/svg11.dtd">
<svg xmlns="http://www.w3.org/2000/svg" version="1.1" width="300px" height="300px" style="shape-rendering:geometricPrecision; text-rendering:geometricPrecision; image-rendering:optimizeQuality; fill-rule:evenodd; clip-rule:evenodd" xmlns:xlink="http://www.w3.org/1999/xlink">
<g><path style="opacity:1" fill="#fceb02" d="M 138.5,0.5 C 207.534,-0.585678 257.034,29.7477 287,91.5C 308.104,147.275 300.437,198.609 264,245.5C 221.609,291.738 169.776,307.571 108.5,293C 58.1614,276.661 24.3281,243.495 7,193.5C -8.73224,133.05 5.76776,81.2169 50.5,38C 75.9703,16.4314 105.304,3.93143 138.5,0.5 Z"/></g>
<g><path style="opacity:1" fill="#1b1b1b" d="M 77.5,47.5 C 99.8358,47.3334 122.169,47.5 144.5,48C 145.667,49.1667 146.833,50.3333 148,51.5C 177.28,115.337 206.947,179.003 237,242.5C 237.743,244.441 237.576,246.274 236.5,248C 224.792,251.653 214.958,248.819 207,239.5C 184,204.833 161,170.167 138,135.5C 135.293,131.965 131.793,130.798 127.5,132C 116.5,143 105.5,154 94.5,165C 84.0779,170.808 73.5779,170.975 63,165.5C 71.1101,153.01 79.7768,140.677 89,128.5C 90.373,126.305 90.7063,123.971 90,121.5C 82.4315,116.579 78.0981,109.579 77,100.5C 77.8242,89.8547 78.6576,79.188 79.5,68.5C 79.6257,61.4026 78.959,54.4026 77.5,47.5 Z"/></g>
<g><path style="opacity:1" fill="#1b1b1b" d="M 131.5,139.5 C 133.193,140.475 134.693,141.808 136,143.5C 141.087,151.341 146.42,159.008 152,166.5C 152.667,168.5 152.667,170.5 152,172.5C 133.422,197.322 115.089,222.322 97,247.5C 95.8668,249.211 94.3668,249.711 92.5,249C 84.7953,242.222 81.6286,233.722 83,223.5C 98.9946,195.354 115.161,167.354 131.5,139.5 Z"/></g>
</svg>
